# xmcd CD database file
#
# Track frame offsets:
#	150
#	20728
#	43762
#	63720
#	109079
#	112241
#	131576
#	169537
#	186809
#	195423
#	222078
#	248346
#
# Disc length: 3673 seconds
#
# Revision: 3
# Processed by: cddbd v1.5.2PL0 Copyright (c) Steve Scherf et al.
# Submitted via: CDex 1.51
#
DISCID=a90e570c
DTITLE=Bugs Henderson - Live in Germany
DYEAR=2002
DGENRE=Blues
TTITLE0=Look What Love Can Do
TTITLE1=Pleasure Tent of The Porno Duck
TTITLE2=Ticket to Ride
TTITLE3=Blues in Reverse
TTITLE4=Good Mornin' Texas
TTITLE5=She Feels Good
TTITLE6=For What It's Worth
TTITLE7=Sweet Marie
TTITLE8=We're an American Band
TTITLE9=She Thinks I Still Care
TTITLE10=Hide Away
TTITLE11=Oh Lonesome Me
EXTD=YEAR: 2002
EXTT0=
EXTT1=
EXTT2=
EXTT3=
EXTT4=
EXTT5=
EXTT6=
EXTT7=
EXTT8=
EXTT9=
EXTT10=
EXTT11=
PLAYORDER=
